<svg id="visual" viewBox="0 0 1903 955" width="1903" height="955" xmlns="http://www.w3.org/2000/svg" xmlns:xlink="http://www.w3.org/1999/xlink" version="1.1"><rect width="1903" height="955" fill="#c2e7ff"></rect><g><g transform="translate(385 943)"><path d="M257 -85.9C290.6 19.8 246 148.5 160.1 207.9C74.3 267.4 -52.8 257.5 -139.8 194C-226.7 130.5 -273.4 13.2 -243.4 -87.5C-213.4 -188.3 -106.7 -272.6 2.5 -273.4C111.7 -274.2 223.4 -191.6 257 -85.9Z" fill="#80c8ec"></path></g><g transform="translate(1878 48)"><path d="M146.5 -31.5C167.8 17.9 147.8 96.8 85.7 149.3C23.7 201.7 -80.2 227.6 -121.7 191.8C-163.1 155.9 -142.1 58.3 -111.4 -4C-80.7 -66.4 -40.3 -93.5 11.1 -97.1C62.6 -100.7 125.3 -80.9 146.5 -31.5Z" fill="#80c8ec"></path></g><g transform="translate(965 57)"><path d="M211.6 -83.5C225 -27.5 152.7 41.5 81.7 87.1C10.7 132.8 -59 154.9 -100.9 127.2C-142.8 99.5 -156.9 22 -135.5 -45.1C-114.1 -112.1 -57 -168.7 21 -175.5C99.1 -182.3 198.2 -139.5 211.6 -83.5Z" fill="#80c8ec"></path></g></g></svg>